<?xml version="1.0" encoding="UTF-8" standalone="no" ?>
<!DOCTYPE svg PUBLIC "-//W3C//DTD SVG 1.1//EN" "http://www.w3.org/Graphics/SVG/1.1/DTD/svg11.dtd">
<svg xmlns="http://www.w3.org/2000/svg" xmlns:xlink="http://www.w3.org/1999/xlink" version="1.1" width="412" height="915" viewBox="0 0 412 915" xml:space="preserve">
<desc>Created with Fabric.js 4.6.0</desc>
<defs>
</defs>
<g transform="matrix(0.48 0 0 0.48 84.67 12.39)" id="ShxfwvtrRIBVMvHX9dqo7"  >
<path style="stroke: rgb(132,74,111); stroke-width: 0; stroke-dasharray: none; stroke-linecap: butt; stroke-dashoffset: 0; stroke-linejoin: miter; stroke-miterlimit: 4; fill: rgb(68,193,173); fill-opacity: 0.4; fill-rule: nonzero; opacity: 1;" vector-effect="non-scaling-stroke"  transform=" translate(0, 0)" d="M 0 -220.83333 C 121.9 -220.83333 220.83333 -121.89999999999999 220.83333 0 C 220.83333 121.9 121.89999999999999 220.83333 0 220.83333 C -121.9 220.83333 -220.83333 121.89999999999999 -220.83333 0 C -220.83333 -121.9 -121.89999999999999 -220.83333 0 -220.83333 z" stroke-linecap="round" />
</g>
<g transform="matrix(0.48 0 0 0.48 -22 82.62)" id="O4WLHCWS__6fd5nkZDlRr"  >
<path style="stroke: rgb(132,74,111); stroke-width: 0; stroke-dasharray: none; stroke-linecap: butt; stroke-dashoffset: 0; stroke-linejoin: miter; stroke-miterlimit: 4; fill: rgb(68,193,173); fill-opacity: 0.4; fill-rule: nonzero; opacity: 1;" vector-effect="non-scaling-stroke"  transform=" translate(0, 0)" d="M 0 -220.83333 C 121.9 -220.83333 220.83333 -121.89999999999999 220.83333 0 C 220.83333 121.9 121.89999999999999 220.83333 0 220.83333 C -121.9 220.83333 -220.83333 121.89999999999999 -220.83333 0 C -220.83333 -121.9 -121.89999999999999 -220.83333 0 -220.83333 z" stroke-linecap="round" />
</g>
</svg>