<?xml version="1.0" encoding="iso-8859-1"?>
<!-- Uploaded to: SVG Repo, www.svgrepo.com, Generator: SVG Repo Mixer Tools -->
<svg height="800px" width="800px" version="1.1" id="Layer_1" xmlns="http://www.w3.org/2000/svg" xmlns:xlink="http://www.w3.org/1999/xlink" 
	 viewBox="0 0 512 512" xml:space="preserve">
<g transform="translate(1 1)">
	<path style="fill:#FECC00;" d="M476.867,255c0,136.533-110.933,247.467-247.467,247.467C115.053,502.467,7.533,391.533,7.533,255
		C7.533,140.653,115.053,7.533,229.4,7.533C365.933,7.533,476.867,118.467,476.867,255"/>
	<path style="fill:#FFA800;" d="M255,7.533c-4.267,0-8.533,0-12.8,0C372.76,14.36,476.867,122.733,476.867,255
		S372.76,495.64,242.2,502.467c4.267,0,8.533,0,12.8,0c136.533,0,247.467-110.933,247.467-247.467S391.533,7.533,255,7.533"/>
	<path style="fill:#FFFFFF;" d="M255,502.467c4.267,0,8.533,0,12.8,0C137.24,495.64,33.133,387.267,33.133,255
		S137.24,14.36,267.8,7.533c-4.267,0-8.533,0-12.8,0C118.467,7.533,7.533,118.467,7.533,255S118.467,502.467,255,502.467"/>
	<path style="fill:#FFE100;" d="M255,434.2c-98.987,0-179.2-80.213-179.2-179.2S156.013,75.8,255,75.8S434.2,156.013,434.2,255
		S353.987,434.2,255,434.2"/>
	<path style="fill:#00DA6C;" d="M340.333,186.733c0,23.893-18.773,42.667-42.667,42.667c1.707,0-17.067-18.773-17.067-42.667
		s18.773-42.667,17.067-42.667C321.56,144.067,340.333,162.84,340.333,186.733"/>
	<path style="fill:#00AD55;" d="M323.267,144.067c-4.267,0-8.533,0.853-12.8,2.56c17.067,5.12,29.867,21.333,29.867,40.107
		s-12.8,34.987-29.867,40.107c4.267,0.853,8.533,2.56,12.8,2.56c23.893,0,42.667-18.773,42.667-42.667
		S347.16,144.067,323.267,144.067"/>
	<path style="fill:#00DA6C;" d="M203.8,186.733c0,23.893-18.773,42.667-42.667,42.667c1.707,0-17.067-18.773-17.067-42.667
		s18.773-42.667,17.067-42.667C185.027,144.067,203.8,162.84,203.8,186.733"/>
	<path style="fill:#00AD55;" d="M186.733,144.067c-4.267,0-8.533,0.853-12.8,2.56C191,151.747,203.8,167.96,203.8,186.733
		S191,221.72,173.933,226.84c4.267,0.853,8.533,2.56,12.8,2.56c23.893,0,42.667-18.773,42.667-42.667
		S210.627,144.067,186.733,144.067"/>
	<path style="fill:#00DA6C;" d="M203.8,323.267c0,23.893-18.773,42.667-42.667,42.667c1.707,0-17.067-18.773-17.067-42.667
		c0-23.893,18.773-42.667,17.067-42.667C185.027,280.6,203.8,299.373,203.8,323.267"/>
	<path style="fill:#00AD55;" d="M186.733,280.6c-4.267,0-8.533,0.853-12.8,2.56C191,288.28,203.8,304.493,203.8,323.267
		s-12.8,34.987-29.867,40.107c4.267,1.707,8.533,2.56,12.8,2.56c23.893,0,42.667-18.773,42.667-42.667
		C229.4,299.373,210.627,280.6,186.733,280.6"/>
	<path style="fill:#00DA6C;" d="M340.333,323.267c0,23.893-18.773,42.667-42.667,42.667c1.707,0-17.067-18.773-17.067-42.667
		c0-23.893,18.773-42.667,17.067-42.667C321.56,280.6,340.333,299.373,340.333,323.267"/>
	<path style="fill:#00AD55;" d="M323.267,280.6c-4.267,0-8.533,0.853-12.8,2.56c17.067,5.12,29.867,21.333,29.867,40.107
		s-12.8,34.987-29.867,40.107c4.267,1.707,8.533,2.56,12.8,2.56c23.893,0,42.667-18.773,42.667-42.667
		C365.933,299.373,347.16,280.6,323.267,280.6"/>
	<path d="M255,511C114.2,511-1,395.8-1,255S114.2-1,255-1s256,115.2,256,256S395.8,511,255,511z M255,16.067
		C123.587,16.067,16.067,123.587,16.067,255S123.587,493.933,255,493.933S493.933,386.413,493.933,255S386.413,16.067,255,16.067z"
		/>
	<path d="M255,442.733c-103.253,0-187.733-84.48-187.733-187.733S151.747,67.267,255,67.267S442.733,151.747,442.733,255
		S358.253,442.733,255,442.733z M255,84.333c-93.867,0-170.667,76.8-170.667,170.667S161.133,425.667,255,425.667
		S425.667,348.867,425.667,255S348.867,84.333,255,84.333z"/>
	<path d="M186.733,237.933c-28.16,0-51.2-23.04-51.2-51.2s23.04-51.2,51.2-51.2s51.2,23.04,51.2,51.2
		S214.893,237.933,186.733,237.933z M186.733,152.6c-18.773,0-34.133,15.36-34.133,34.133s15.36,34.133,34.133,34.133
		s34.133-15.36,34.133-34.133S205.507,152.6,186.733,152.6z"/>
	<path d="M323.267,237.933c-28.16,0-51.2-23.04-51.2-51.2s23.04-51.2,51.2-51.2c28.16,0,51.2,23.04,51.2,51.2
		S351.427,237.933,323.267,237.933z M323.267,152.6c-18.773,0-34.133,15.36-34.133,34.133s15.36,34.133,34.133,34.133
		s34.133-15.36,34.133-34.133S342.04,152.6,323.267,152.6z"/>
	<path d="M186.733,374.467c-28.16,0-51.2-23.04-51.2-51.2c0-28.16,23.04-51.2,51.2-51.2s51.2,23.04,51.2,51.2
		C237.933,351.427,214.893,374.467,186.733,374.467z M186.733,289.133c-18.773,0-34.133,15.36-34.133,34.133
		s15.36,34.133,34.133,34.133s34.133-15.36,34.133-34.133S205.507,289.133,186.733,289.133z"/>
	<path d="M323.267,374.467c-28.16,0-51.2-23.04-51.2-51.2c0-28.16,23.04-51.2,51.2-51.2c28.16,0,51.2,23.04,51.2,51.2
		C374.467,351.427,351.427,374.467,323.267,374.467z M323.267,289.133c-18.773,0-34.133,15.36-34.133,34.133
		s15.36,34.133,34.133,34.133s34.133-15.36,34.133-34.133S342.04,289.133,323.267,289.133z"/>
</g>
</svg>